<svg version="1.1" id="Layer_1" xmlns="http://www.w3.org/2000/svg" xmlns:xlink="http://www.w3.org/1999/xlink" x="0px" y="0px" width="100%" viewBox="0 0 170 167" enable-background="new 0 0 170 167" xml:space="preserve">

<path fill="#FBFCFA" opacity="1.000000" stroke="none" d="
M57.959343,131.058228 
	C51.558876,127.825554 45.393784,124.916954 39.450893,121.609138 
	C37.930111,120.762672 36.123833,118.659142 36.115845,117.124466 
	C35.932106,81.828964 35.978508,46.532261 35.996681,11.235787 
	C35.996830,10.946266 36.196487,10.656846 36.547367,9.703206 
	C43.038536,14.165759 49.378357,18.543512 55.738304,22.891840 
	C64.087250,28.600058 72.520531,34.189274 80.746902,40.068417 
	C82.227509,41.126553 83.780975,43.333344 83.789124,45.017128 
	C83.963173,80.961182 83.921158,116.906288 83.921158,151.888245 
	C75.629166,145.209625 66.953239,138.221756 57.959343,131.058228 
z" data-index="1" style="opacity: 1;"></path>
<path fill="#FBFBFA" opacity="1.000000" stroke="none" d="
M90.776115,92.999916 
	C90.777229,77.184082 90.882408,61.867008 90.699463,46.553379 
	C90.658669,43.138996 91.794090,41.207741 94.615738,39.320713 
	C109.096130,29.636723 123.411049,19.705296 138.331696,9.485001 
	C138.507568,11.316538 138.727798,12.544090 138.728409,13.771751 
	C138.745331,47.732922 138.680252,81.694351 138.825577,115.654907 
	C138.841019,119.262917 137.640518,120.732254 134.360840,122.107162 
	C118.247360,128.862259 103.722290,137.984863 92.612732,151.834991 
	C92.336891,152.178894 91.904968,152.397568 90.776215,153.268417 
	C90.776215,132.892502 90.776215,113.196213 90.776115,92.999916 
z" data-index="2" style="opacity: 1;"></path>
<path fill="#EDEEED" opacity="1.000000" stroke="none" d="
M154.777039,114.995804 
	C154.777161,120.471069 154.777161,125.447525 154.777161,129.920700 
	C143.071289,133.160812 131.827606,136.273010 120.583916,139.385193 
	C120.366783,138.901367 120.149651,138.417542 119.932518,137.933716 
	C126.538948,134.575562 133.017181,130.922470 139.801559,127.973724 
	C143.655853,126.298492 145.241028,124.418076 145.206146,119.965675 
	C144.971268,89.988983 145.079056,60.009579 145.080658,30.031054 
	C145.081131,21.168390 145.088211,21.168390 154.776901,18.221207 
	C154.776901,50.475128 154.776901,82.486061 154.777039,114.995804 
z" data-index="3" style="opacity: 1;"></path>
<path fill="#F6F7F5" opacity="1.000000" stroke="none" d="
M29.443514,25.296576 
	C29.451134,57.386070 29.530441,89.011971 29.368616,120.636642 
	C29.349211,124.428963 30.631691,126.176323 33.997196,127.626808 
	C39.609230,130.045517 44.934441,133.123077 50.434486,135.812683 
	C51.940708,136.549255 53.639576,136.891891 55.250038,137.415314 
	C54.570564,138.063461 53.891090,138.711609 53.211617,139.359756 
	C42.379715,136.235413 31.547812,133.111084 20.224468,129.845016 
	C20.224468,93.325386 20.224468,55.964527 20.224468,17.703066 
	C23.370253,20.753862 29.405231,18.445330 29.443514,25.296576 
z" data-index="4" style="opacity: 1;"></path>
<path fill="#DADDDC" opacity="1.000000" stroke="none" d="
M8.044353,112.000000 
	C8.044354,85.562195 8.044354,59.624386 8.044354,33.677383 
	C12.688995,31.545099 12.779247,34.221695 12.774805,37.421082 
	C12.731139,68.868950 12.745409,100.316895 12.743262,131.764816 
	C12.743139,133.579102 12.743246,135.393402 12.743246,136.628937 
	C20.086058,138.742630 26.989349,140.710083 33.861019,142.782379 
	C34.126694,142.862503 34.088676,143.949631 34.138752,144.248581 
	C25.569262,143.650894 17.108118,143.060745 8.044353,142.428574 
	C8.044353,132.687195 8.044353,122.593597 8.044353,112.000000 
z" data-index="5" style="visibility: visible; opacity: 1;"></path>
<path fill="#EEF0EF" opacity="1.000000" stroke="none" d="
M166.392059,104.000214 
	C166.391602,117.147102 166.391602,129.793991 166.391602,142.503265 
	C157.257126,142.998886 148.243454,143.487961 139.229782,143.977036 
	C139.106598,143.502884 138.983429,143.028717 138.860245,142.554565 
	C146.365906,140.750702 153.871582,138.946838 161.981232,136.997818 
	C161.981232,135.542404 161.981415,133.587097 161.981216,131.631775 
	C161.978012,100.341835 161.967484,69.051895 161.985443,37.761971 
	C161.986862,35.284031 161.105453,31.890093 166.392532,33.411942 
	C166.392532,56.682236 166.392532,80.091217 166.392059,104.000214 
z" data-index="6" style="opacity: 1;"></path>
</svg>